Coordinates
version=1
nRows=6
nColumns=63
inDegrees=yes

Units are S.I. units (second, meters, Newtons, ...)
If the header above contains a line with 'inDegrees', this indicates whether rotational values are in degrees (yes) or radians (no).

endheader
time	pelvis_tilt	pelvis_list	pelvis_rotation	pelvis_tx	pelvis_ty	pelvis_tz	hip_flexion_r	hip_adduction_r	hip_rotation_r	knee_angle_r	knee_angle_r_beta	ankle_angle_r	subtalar_angle_r	mtp_angle_r	hip_flexion_l	hip_adduction_l	hip_rotation_l	knee_angle_l	knee_angle_l_beta	ankle_angle_l	subtalar_angle_l	mtp_angle_l	L5_S1_Flex_Ext	L5_S1_Lat_Bending	L5_S1_axial_rotation	L4_L5_Flex_Ext	L4_L5_Lat_Bending	L4_L5_axial_rotation	L3_L4_Flex_Ext	L3_L4_Lat_Bending	L3_L4_axial_rotation	L2_L3_Flex_Ext	L2_L3_Lat_Bending	L2_L3_axial_rotation	L1_L2_Flex_Ext	L1_L2_Lat_Bending	L1_L2_axial_rotation	L1_T12_Flex_Ext	L1_T12_Lat_Bending	L1_T12_axial_rotation	Abs_r3	Abs_r2	Abs_r1	Abs_t1	Abs_t2	neck_flexion	neck_bending	neck_rotation	arm_flex_r	arm_add_r	arm_rot_r	elbow_flex_r	pro_sup_r	wrist_flex_r	wrist_dev_r	arm_flex_l	arm_add_l	arm_rot_l	elbow_flex_l	pro_sup_l	wrist_flex_l	wrist_dev_l
     11.64200000	    -41.54731044	      2.99151381	      4.03251658	     -0.14299130	      1.02952010	      0.03580881	     82.89278893	     -7.80886543	      1.73995007	     51.15391632	      0.89280427	      1.58172666	    -10.77021708	      0.00000000	    104.60844063	     -3.75914152	      0.82942751	    114.76730469	      2.00306734	      1.06554313	    -15.82263892	      0.00000000	     -0.06427761	     -0.05880908	     -1.23494560	     -0.11936995	     -0.07821608	     -1.31212969	     -0.10560168	     -0.14298840	     -1.31212969	     -0.07346288	     -0.14298840	     -1.08057740	     -0.05968819	     -0.11992348	     -1.00339330	     -0.03672823	     -0.09109527	     -0.92620920	     -0.45912854	     -0.66526011	     -6.86839692	      0.00000000	      0.00000000	      0.00000000	      0.00000000	      0.00000000	     69.52231952	    -14.03317793	     38.24571508	     49.19556236	     59.27138993	      0.00000000	      5.00000014	     60.94724952	    -27.21064132	     25.63753498	     56.89340278	     63.94306286	      0.00000000	      5.00000014
     11.65000000	    -41.46131916	      3.10566057	      4.18649790	     -0.14291946	      1.02903232	      0.03551360	     81.49691505	     -8.23243467	      1.07663479	     50.03257159	      0.87323311	      0.80516289	    -10.20063023	      0.00000000	    106.05467492	     -3.55491631	      0.68270385	    115.83931430	      2.02177744	      2.39170718	    -15.91056314	      0.00000000	     -0.06319598	     -0.09570197	     -1.25902861	     -0.11736125	     -0.12728362	     -1.33771790	     -0.10382467	     -0.23268977	     -1.33771790	     -0.07222668	     -0.23268977	     -1.10165003	     -0.05868378	     -0.19515545	     -1.02296074	     -0.03611018	     -0.14824235	     -0.94427146	     -0.45140254	     -1.08259981	     -7.00233941	      0.00000000	      0.00000000	      0.00000000	      0.00000000	      0.00000000	     69.40372449	    -14.12498327	     38.22630999	     49.10957311	     59.27013279	      0.00000000	      5.00000014	     61.48528492	    -27.28386784	     26.60962193	     56.63006746	     64.03922671	      0.00000000	      5.00000014
     11.65800000	    -41.38417331	      3.31775406	      4.34948574	     -0.14280207	      1.02861173	      0.03527571	     80.26483538	     -8.60196226	      0.75044901	     49.29156749	      0.86030015	      0.15582501	     -9.72752444	      0.00000000	    107.47614818	     -3.33495192	      0.43991092	    116.66215081	      2.03613864	      3.25163537	    -15.99299812	      0.00000000	     -0.06172073	     -0.14641230	     -1.28511262	     -0.11462156	     -0.19472836	     -1.36543216	     -0.10140098	     -0.35598686	     -1.36543216	     -0.07054062	     -0.35598686	     -1.12447354	     -0.05731387	     -0.29856396	     -1.04415400	     -0.03526722	     -0.22679265	     -0.96383446	     -0.44086499	     -1.65624520	     -7.14741086	      0.00000000	      0.00000000	      0.00000000	      0.00000000	      0.00000000	     69.26036811	    -14.22950630	     38.19442746	     49.09652110	     59.27763389	      0.00000000	      5.00000014	     61.85453598	    -27.30365717	     27.24172364	     56.46608030	     64.11737539	      0.00000000	      5.00000014
     11.66700000	    -41.31718832	      3.60355360	      4.54606314	     -0.14288661	      1.02826116	      0.03526798	     79.21326266	     -9.10093255	      0.36403402	     48.94655661	      0.85427857	      0.01625688	     -8.66029892	      0.00000000	    108.77725458	     -3.14370387	      0.13626637	    117.16655266	      2.04494212	      4.90435041	    -15.29290442	      0.00000000	     -0.06417809	     -0.21252235	     -1.29107727	     -0.11918513	     -0.28265473	     -1.37176960	     -0.10543819	     -0.51672685	     -1.37176960	     -0.07334914	     -0.51672685	     -1.12969261	     -0.05959578	     -0.43337559	     -1.04900028	     -0.03667136	     -0.32919713	     -0.96830795	     -0.45841769	     -2.40409538	     -7.18058444	      0.00000000	      0.00000000	      0.00000000	      0.00000000	      0.00000000	     68.92333446	    -14.39502474	     37.64200125	     49.26161848	     59.29825067	      0.00000000	      5.00000014	     62.91199117	    -27.59897430	     29.66017204	     56.00109028	     64.46839041	      0.00000000	      5.00000014
     11.67500000	    -41.30775003	      3.74071907	      4.52510687	     -0.14306799	      1.02791138	      0.03538889	     78.36182499	     -9.18021037	      0.32886256	     48.94531181	      0.85425684	     -0.27004848	     -8.49067673	      0.00000000	    110.21998191	     -3.09392686	     -0.03933236	    117.39939438	      2.04900597	      5.32172947	    -15.25991476	      0.00000000	     -0.06385950	     -0.25261643	     -1.29239495	     -0.11859348	     -0.33597985	     -1.37316963	     -0.10491478	     -0.61421159	     -1.37316963	     -0.07298503	     -0.61421159	     -1.13084558	     -0.05929994	     -0.51513542	     -1.05007089	     -0.03648932	     -0.39130285	     -0.96929621	     -0.45614205	     -2.85764758	     -7.18791298	      0.00000000	      0.00000000	      0.00000000	      0.00000000	      0.00000000	     68.86056531	    -14.41345363	     37.62071393	     49.21744332	     59.27904653	      0.00000000	      5.00000014	     63.13522575	    -27.61480236	     29.63427371	     56.05678010	     64.44049710	      0.00000000	      5.00000014
     11.68300000	    -41.36402897	      3.91453119	      4.65175165	     -0.14333582	      1.02805276	      0.03498221	     77.61315624	     -9.59381592	     -0.01312747	     48.91291821	      0.85369147	     -1.19322139	     -7.89785414	      0.00000000	    111.44648152	     -2.76195274	     -0.38191077	    117.21445342	      2.04577814	      6.50950922	    -15.35799677	      0.00000000	     -0.06222485	     -0.29122262	     -1.30095633	     -0.11555777	     -0.38732608	     -1.38226610	     -0.10222921	     -0.70807868	     -1.38226610	     -0.07111678	     -0.70807868	     -1.13833679	     -0.05778200	     -0.59386116	     -1.05702702	     -0.03555528	     -0.45110384	     -0.97571725	     -0.44446589	     -3.29436851	     -7.23552881	      0.00000000	      0.00000000	      0.00000000	      0.00000000	      0.00000000	     68.72202348	    -14.49961517	     37.25445600	     49.28008321	     59.23347566	      0.00000000	      5.00000014	     63.40452116	    -27.61826798	     30.09543921	     56.08963686	     64.47284578	      0.00000000	      5.00000014
